<svg id="Camada_1" data-name="Camada 1" xmlns="http://www.w3.org/2000/svg" viewBox="0 0 250 250"><defs><style>.cls-1{fill:#9cb4df;}.cls-2{fill:#4c99d0;}.cls-2,.cls-3,.cls-5{stroke:#422724;stroke-linecap:round;stroke-linejoin:round;}.cls-3{fill:#f0c1af;}.cls-4{fill:#422724;}.cls-5{fill:#e6f4fb;}</style></defs><ellipse class="cls-1" cx="137.88" cy="206.37" rx="68.5" ry="5.5"/><path class="cls-2" d="M119.5,171.91c-7.09,6.53-17.44,10.11-26.66,7.26-2.55-.79-5-2-7.66-2.17-3.13-.15-6.13,1.28-8.71,3.06s-4.89,3.94-7.57,5.56a22.41,22.41,0,0,1-10.8,3.2c-2.11.07-4.75-.58-5.18-2.65-.35-1.68,1-3.18,2.25-4.35l16.18-15.29"/><path class="cls-2" d="M172.6,145.81,206,154.62c2.47.65,5.05,1.36,6.91,3.12s2.65,4.92,1,6.89c-1.21,1.46-3.28,1.81-5.16,2a129.83,129.83,0,0,1-38-1.35"/><path class="cls-2" d="M105,135.13c-14.23-1.08-26-11.23-39.7-15.38-10-3.06-20.84-2.77-31.19-1-3.94.67-8,1.61-11.15,4a6,6,0,0,0-2.59,3.83c-.28,2.37,1.81,4.51,4.13,5.11s4.75.06,7.07-.51c9.79-2.44,19.83-5.57,29.78-3.9,13.43,2.26,24.49,13,38.13,14.08C101.13,139.52,102.8,137.67,105,135.13Z"/><path class="cls-2" d="M157.64,139.39c-22.78,9.37-44.44-14.24-59.79-2.61-13.19,10-6.59,26.64,7.1,34.22,27.26,16.61,78,16.71,72.17-26.87C170.94,143.5,163.36,142,157.64,139.39Z"/><path class="cls-2" d="M103.2,134.11c-5.56,1.46-9.77,6-13.51,10.36-3,3.53-6,7.26-9.91,9.95a7.16,7.16,0,0,1-5.57,1.07,10.93,10.93,0,0,0-7,.33c-2.24,1-3.74,3.16-5.29,5.07a46.21,46.21,0,0,1-12.76,10.82c-2.35,1.35-5.12,2.88-5.13,5.78a4.52,4.52,0,0,0,1.22,3c1.71,1.86,4.23,2.32,6.62,2.25,8.45-.24,15.88-7.31,23.92-6.67,12.69,3.25,26.85,1.17,37-7.07"/><path class="cls-2" d="M168,163.78a215.08,215.08,0,0,1,22.7,27c1.15,1.62,2.32,3.44,2.09,5.41a5.09,5.09,0,0,1-2.93,3.82,8.86,8.86,0,0,1-4.91.64c-4.67-.56-8.7-3.39-12.52-6.13l-23.87-17.12"/><path class="cls-2" d="M192.78,61.74s-28.22-27.37-41.44-23.17c-5.78,1.83-12.92,40.16-7.21,50.53"/><path class="cls-2" d="M206,143.9l-1.11.23c-12.43,2.14-21.61,1.85-27.14,1.2-29.26-3.44-47.68-9.74-47.68-38.54,0-32.45,16.05-49.5,42-49.5,37.43,0,54.24,26.44,50,55.5-.24,1.66-.55,3.25-.9,4.78a.94.94,0,0,0,0,.16c1.47.11,4.09.67,5,3.29C228.8,129.23,220.75,140.63,206,143.9Z"/><path class="cls-2" d="M158.77,59.76s-40.84-6.48-50.06,4.51c-4,4.8,12,40.47,23.06,45.77"/><path class="cls-3" d="M113.23,68.59c12.44-2.41,20.75,10.17,36.73,8,4.11-.57-8.47,28.22-17,27.4C126.81,103.67,109.36,69.34,113.23,68.59Z"/><ellipse class="cls-4" cx="202.16" cy="119.87" rx="2.5" ry="4.38"/><path class="cls-5" d="M206,143.9l-1.11.23a2.58,2.58,0,0,1-.08-.26,21.17,21.17,0,0,1,16.36-26.3.94.94,0,0,0,0,.16c1.47.11,4.09.67,5,3.29C228.8,129.23,220.75,140.63,206,143.9Z"/><path class="cls-4" d="M222.23,117.89c.14-.82,2.56-1.07,4.91-.68,5,.81,1.48,10-.72,9.17C225.33,126,222,119.06,222.23,117.89Z"/></svg>