<svg id="Camada_1" data-name="Camada 1" xmlns="http://www.w3.org/2000/svg" viewBox="0 0 250 250"><defs><style>.cls-1{fill:#9cb4df;}.cls-2{fill:#4c99d0;}.cls-2,.cls-3,.cls-5{stroke:#422724;stroke-linecap:round;stroke-linejoin:round;}.cls-3{fill:#f0c1af;}.cls-4{fill:#422724;}.cls-5{fill:#e6f4fb;}</style></defs><ellipse class="cls-1" cx="141.42" cy="197.08" rx="68.5" ry="5.5"/><path class="cls-2" d="M99.37,125c-5.91,1.48-13.22,4.2-16.63,9.25s-4.56,9.46-4.56,16.89c-2.09-2.25-6-1.73-8.38.18s-3.78,4.79-5.35,7.43a46,46,0,0,1-12.66,13.8c-1.69,1.21-3.65,2.62-3.78,4.7a4.28,4.28,0,0,0,2.79,3.93,9.47,9.47,0,0,0,5.07.32A26.66,26.66,0,0,0,75,167.33a26.21,26.21,0,0,0,24.46-3.14"/><path class="cls-2" d="M95.07,126.44c-12.43-5.89-25.25-11.88-39-12.7-10.83-.65-21.66,2-31.65,6.24a14.74,14.74,0,0,0-5.85,3.77c-1.49,1.81-2.08,4.57-.75,6.5a5.49,5.49,0,0,0,4.48,2.11,13.52,13.52,0,0,0,5-1.16c4.09-1.59,8-3.66,12.15-5.06,8.27-2.78,17.28-2.82,25.86-1.27s16.81,4.65,24.87,8C90.21,132.9,90.24,132.93,95.07,126.44Z"/><path class="cls-2" d="M169.71,152.76l20.19,28.18c1.49,2.08,3,4.29,3.32,6.88s-1.17,5.65-3.73,6.21c-1.9.42-3.73-.6-5.34-1.62a124.83,124.83,0,0,1-28.63-25"/><path class="cls-2" d="M153,141.55c-24,5.49-50-28.83-63.18-14.69-10.33,11.12-6,25.7,6,35.68,24.58,20.37,85.53,23.65,77.11-11.61C167,149.29,158.26,145,153,141.55Z"/><path class="cls-2" d="M94.92,123.76c-5.76,2.11-8.58,5.86-10.64,10.64a21.23,21.23,0,0,0-.54,15.25c-.24-2-2.9-3-4.69-2.07a5.64,5.64,0,0,0-2.66,5,23.39,23.39,0,0,0,1.11,5.88,37.4,37.4,0,0,1-.24,18.91c-.82,3-2,6.41-.23,9,1.89,2.81,6.25,2.74,9.13,1a14.63,14.63,0,0,0,6-8.38c1-3.36,1.13-6.92,1.44-9.66a16.08,16.08,0,0,0,25.49-15.65"/><path class="cls-2" d="M134.35,164.9a24.85,24.85,0,0,0-5.47,2.76,8.53,8.53,0,0,0-3.49,4.89c-.73,3.33,1.26,6.61,3.28,9.36,4.8,6.54,10.55,12.76,18,15.87,1.86.77,4.09,1.31,5.8.26a4.82,4.82,0,0,0,2.06-3.79,12.2,12.2,0,0,0-.7-4.39,61.92,61.92,0,0,0-6.18-14"/><path class="cls-2" d="M196,71S167.8,43.66,154.58,47.86c-5.78,1.83-12.92,40.16-7.21,50.53"/><path class="cls-2" d="M209.21,153.19l-1.11.23c-12.43,2.14-21.61,1.85-27.14,1.2-29.26-3.44-47.68-9.74-47.68-38.54,0-32.45,16.05-49.5,42-49.5,37.43,0,54.24,26.44,50,55.5-.24,1.66-.55,3.25-.9,4.78a.94.94,0,0,0,0,.16c1.47.11,4.09.67,5,3.29C232,138.52,224,149.92,209.21,153.19Z"/><path class="cls-2" d="M162,69S121.17,62.56,112,73.55c-4,4.8,12,40.47,23.06,45.77"/><path class="cls-3" d="M116.46,77.87c12.44-2.41,20.75,10.17,36.73,8,4.11-.57-8.47,28.22-17,27.4C130,113,112.59,78.62,116.46,77.87Z"/><ellipse class="cls-4" cx="205.39" cy="129.16" rx="2.5" ry="4.38"/><path class="cls-5" d="M209.21,153.19l-1.11.23a2.58,2.58,0,0,1-.08-.26,21.17,21.17,0,0,1,16.36-26.3.94.94,0,0,0,0,.16c1.47.11,4.09.67,5,3.29C232,138.52,224,149.92,209.21,153.19Z"/><path class="cls-4" d="M225.47,127.18c.14-.82,2.56-1.07,4.91-.68,5,.81,1.48,9.95-.72,9.17C228.56,135.27,225.27,128.35,225.47,127.18Z"/></svg>