<svg id="Camada_1" data-name="Camada 1" xmlns="http://www.w3.org/2000/svg" viewBox="0 0 250 250"><defs><style>.cls-1{fill:#9cb4df;}.cls-2{fill:#4c99d0;}.cls-2,.cls-3,.cls-4,.cls-6{stroke:#422724;stroke-linecap:round;stroke-linejoin:round;}.cls-3{fill:none;}.cls-4{fill:#f0c1af;}.cls-5{fill:#422724;}.cls-6{fill:#e6f4fb;}</style></defs><ellipse class="cls-1" cx="126.17" cy="198.68" rx="68.5" ry="5.5"/><path class="cls-2" d="M160.55,166.56a63.17,63.17,0,0,0,7.29,22.61,16.3,16.3,0,0,1,1.77,3.93,4.59,4.59,0,0,1-.78,4.08,4.68,4.68,0,0,1-4.4,1.23,11.77,11.77,0,0,1-4.27-2.07,52.06,52.06,0,0,1-18.65-23.2"/><path class="cls-2" d="M97.11,140.24c-10.29-7.51-21.35-14.5-33.79-17.28s-26.58-.69-35.79,8.11a11.29,11.29,0,0,0-3.09,4.33,5.06,5.06,0,0,0,.82,5c1.48,1.58,4,1.64,6.06.85a28.19,28.19,0,0,0,5.46-3.51c8.15-5.65,19-6.2,28.59-3.75s18.29,7.56,26.82,12.61A43.75,43.75,0,0,0,97.11,140.24Z"/><path class="cls-2" d="M97.21,174.26c-6-4.22-10.73-9.61-11-17-.29-8.51,5-16.51,12.66-20.28s16.73-3.75,25-1.53,15.73,6.5,23.57,10.6c5.84-.54,11.64-1.48,18.05-1.76a45.38,45.38,0,0,1,.07,18.46,17.61,17.61,0,0,1-8.93,12.07,20.24,20.24,0,0,1-15.4,1.52c-3-.92-5.74-2.53-8.83-2.9-4.52-.54-8.84,1.66-13.21,3C112.47,178.4,102.44,177.92,97.21,174.26Z"/><path class="cls-2" d="M139.78,165.49a54.19,54.19,0,0,0-6.49,26c0,2.59,0,5.65-2.12,7.13a4.89,4.89,0,0,1-5,0,11,11,0,0,1-3.67-3.71,31.07,31.07,0,0,1-4-25.64"/><path class="cls-2" d="M93.92,140.34a23.5,23.5,0,0,0-8,13.38,25.58,25.58,0,0,0,2.44,15.83,2.85,2.85,0,0,0-3.83,1.29,4.71,4.71,0,0,0,.33,4.35,13.63,13.63,0,0,0,3,3.34l8.76,7.71,13.67,12a4.53,4.53,0,0,0,1.75,1.12c1.79.48,3.4-1.28,4.08-3a12.73,12.73,0,0,0-3-13.09c5.41-.55,9.83-5.17,11.29-10.41s.4-10.9-1.69-15.92c-2-4.66-5.08-9.21-9.8-11"/><path class="cls-3" d="M88.1,169.07a26.33,26.33,0,0,0,5.42,6.79"/><path class="cls-2" d="M189,69.43s-28.22-27.37-41.44-23.17c-5.78,1.83-12.92,40.16-7.21,50.53"/><path class="cls-2" d="M202.19,151.59l-1.11.23c-12.43,2.14-21.61,1.85-27.14,1.2-29.26-3.44-47.68-9.74-47.68-38.54,0-32.45,16-49.5,42-49.5,37.43,0,54.24,26.44,50,55.5-.24,1.66-.55,3.25-.9,4.78a.94.94,0,0,0,0,.16c1.47.11,4.09.67,5,3.29C225,136.92,217,148.32,202.19,151.59Z"/><path class="cls-2" d="M155,67.44S114.15,61,104.93,72c-4,4.8,12,40.47,23.06,45.77"/><path class="cls-4" d="M109.44,76.27c12.44-2.41,20.75,10.17,36.73,8,4.11-.57-8.47,28.22-17,27.4C123,111.36,105.57,77,109.44,76.27Z"/><ellipse class="cls-5" cx="198.37" cy="127.55" rx="2.5" ry="4.38"/><path class="cls-6" d="M202.19,151.59l-1.11.23a2.58,2.58,0,0,1-.08-.26,21.17,21.17,0,0,1,16.36-26.3.94.94,0,0,0,0,.16c1.47.11,4.09.67,5,3.29C225,136.92,217,148.32,202.19,151.59Z"/><path class="cls-5" d="M218.45,125.58c.14-.82,2.56-1.07,4.91-.68,4.95.81,1.48,9.95-.72,9.17C221.54,133.67,218.25,126.74,218.45,125.58Z"/></svg>