<svg id="Camada_1" data-name="Camada 1" xmlns="http://www.w3.org/2000/svg" viewBox="0 0 250 250"><defs><style>.cls-1{fill:#9cb4df;}.cls-2{fill:#4c99d0;}.cls-2,.cls-3,.cls-5{stroke:#422724;stroke-linecap:round;stroke-linejoin:round;}.cls-3{fill:#f0c1af;}.cls-4{fill:#422724;}.cls-5{fill:#e6f4fb;}</style></defs><ellipse class="cls-1" cx="129.44" cy="194.93" rx="68.5" ry="5.5"/><path class="cls-2" d="M160.28,170.58C154.17,177.89,147,185,137.8,187.49a8.83,8.83,0,0,1-3.67.37,3.9,3.9,0,0,1-2.95-2c-.63-1.36-.14-3,.43-4.34a38.3,38.3,0,0,1,7-11"/><path class="cls-2" d="M102.18,177c-8.31-1.74-12.08-6.08-13.16-11.45s.63-11,3.39-15.73c3.43-5.87,8.68-10.85,15.11-13.05,5.91-2,12.46-1.6,18.42.26s11.66,5.81,17.38,9.8c8.6,1.66,17,2.57,25.8,4.55,1.32,7.72-2.3,15.81-8.26,20.89s-14,7.36-21.8,7.4A39.76,39.76,0,0,1,119,174.54C114.62,176.42,107.25,178,102.18,177Z"/><path class="cls-2" d="M93.5,155.18c-5.55.42-11-1.9-15.48-5.23s-8.08-7.63-11.76-11.81S58.74,129.81,54,126.9a30.6,30.6,0,0,0-24.77-3.07,10.09,10.09,0,0,0-4.39,2.39,4.43,4.43,0,0,0-1.12,4.64,4.88,4.88,0,0,0,4.35,2.55,29.48,29.48,0,0,0,5.27-.62c7.87-1,15.58,3,21.57,8.24s10.84,11.62,16.87,16.78,13.85,9.08,21.69,7.84C93.44,162.22,93.42,158.8,93.5,155.18Z"/><path class="cls-2" d="M148.92,170.34a95.71,95.71,0,0,1-22.85,16.81c-1.15.61-2.47,1.21-3.71.81-1.67-.53-2.32-2.56-2.35-4.31-.1-5.57,3.41-10.51,4.82-15.9"/><path class="cls-2" d="M115,146.24c5.26.91,10.55,2.63,14.59,6.12s6.6,9,5.44,14.25a15.77,15.77,0,0,1-4.45,7.56,41.93,41.93,0,0,1-7,5.36,24.06,24.06,0,0,1,7.14.65,8,8,0,0,1,5.32,4.46c.86,2.24,0,5.17-2.18,6.15-1.52.67-3.27.33-4.9,0a85.51,85.51,0,0,0-18.56-1.4,24.59,24.59,0,0,1-6.86-.32,7,7,0,0,1-5.13-4.17,4.78,4.78,0,0,1,2.83-5.85,17.73,17.73,0,0,1-10.8-25.21"/><path class="cls-2" d="M189.67,73.17S161.45,45.8,148.23,50c-5.78,1.83-12.92,40.16-7.21,50.53"/><path class="cls-2" d="M202.86,155.32l-1.11.23c-12.43,2.14-21.61,1.85-27.14,1.2-29.26-3.44-47.68-9.74-47.68-38.54,0-32.45,16-49.5,42-49.5,37.43,0,54.24,26.44,50,55.5-.24,1.66-.55,3.25-.9,4.78a.94.94,0,0,0,0,.16c1.47.11,4.09.67,5,3.29C225.69,140.65,217.64,152.05,202.86,155.32Z"/><path class="cls-2" d="M155.65,71.18s-40.84-6.48-50.06,4.51c-4,4.8,12,40.47,23.06,45.77"/><path class="cls-3" d="M110.11,80c12.44-2.41,20.75,10.17,36.73,8,4.11-.57-8.47,28.22-17,27.4C123.69,115.1,106.24,80.76,110.11,80Z"/><ellipse class="cls-4" cx="199.04" cy="131.29" rx="2.5" ry="4.38"/><path class="cls-5" d="M202.86,155.32l-1.11.23a2.58,2.58,0,0,1-.08-.26A21.17,21.17,0,0,1,218,129a.94.94,0,0,0,0,.16c1.47.11,4.09.67,5,3.29C225.69,140.65,217.64,152.05,202.86,155.32Z"/><path class="cls-4" d="M219.12,129.31c.14-.82,2.56-1.07,4.91-.68,4.95.81,1.48,10-.72,9.17C222.21,137.41,218.92,130.48,219.12,129.31Z"/></svg>