<svg id="Camada_1" data-name="Camada 1" xmlns="http://www.w3.org/2000/svg" viewBox="0 0 250 250"><defs><style>.cls-1{fill:#9cb4df;}.cls-2{fill:#4c99d0;}.cls-2,.cls-3,.cls-5{stroke:#422724;stroke-linecap:round;stroke-linejoin:round;}.cls-3{fill:#f0c1af;}.cls-4{fill:#422724;}.cls-5{fill:#e6f4fb;}</style></defs><ellipse class="cls-1" cx="128.24" cy="197.33" rx="68.5" ry="5.5"/><path class="cls-2" d="M146.87,179.1l-4.27,13.72c-.49,1.58-1.09,3.3-2.53,4.16-1.89,1.14-4.51.21-5.89-1.48a12.07,12.07,0,0,1-2.14-6.08,51.5,51.5,0,0,1-.42-13.18"/><path class="cls-2" d="M89.12,171.55c-3.66-8.12-.05-20.05,6.25-26.35s15.43-7.8,24.1-5.77c4.44,1,8.56,3.21,13,4.1s9.76.13,12-3.29c10.63,2.51,21.26,5,31.11,8.45-1,10.84-4.85,21-13.26,28.24-15.55,13.39-33.71,4.77-37,4.26C113.34,179.33,93.35,181,89.12,171.55Z"/><path class="cls-2" d="M92.12,165c-6,0-11.14-4.64-14.26-9.8s-5-11.06-8.37-16.05a34.29,34.29,0,0,0-16.24-12.45,45.41,45.41,0,0,0-20.46-2.44c-3.2.32-6.53,1-9,3.06a6,6,0,0,0-2.15,3.25,3.59,3.59,0,0,0,1.15,3.58c1.31,1,3.14.71,4.77.46C40,132.62,53.75,136,62.09,145.4c3.46,3.91,5.84,8.62,8.29,13.23s5,9.24,8.81,12.85,8.94,6.09,14.12,5.49A39.27,39.27,0,0,1,92.12,165Z"/><path class="cls-2" d="M91.34,150.93a28.78,28.78,0,0,0,1.92,31.55,17.71,17.71,0,0,0-4.38,4.68,6,6,0,0,0-.16,6.12c1.57,2.39,4.91,2.69,7.77,2.67,10.11,0,20.57-.92,30,2.75,1.77.69,3.64,1.54,5.48,1.07,2.43-.63,3.74-3.59,3.1-6a8.14,8.14,0,0,0-5.09-5.16c-2.33-.92-4.89-1.07-7.42-1.78,5.21-.86,9.53-5.11,11.09-10.15a19.28,19.28,0,0,0-2.14-15.23,28.63,28.63,0,0,0-11.57-10.51"/><path class="cls-2" d="M159.13,166.6A64.65,64.65,0,0,0,163,191c.68,1.87,1.43,4,.47,5.74a4.7,4.7,0,0,1-4.18,2.08,9.83,9.83,0,0,1-6.45-2.75,21.82,21.82,0,0,1-4.23-5.75A57.91,57.91,0,0,1,142,171"/><path class="cls-2" d="M191.56,70.77S163.34,43.4,150.12,47.6c-5.78,1.83-12.92,40.16-7.21,50.53"/><path class="cls-2" d="M204.75,152.93l-1.11.23c-12.43,2.14-21.61,1.85-27.14,1.2-29.26-3.44-47.68-9.74-47.68-38.54,0-32.45,16.05-49.5,42-49.5,37.43,0,54.24,26.44,50,55.5-.24,1.66-.55,3.25-.9,4.78a.94.94,0,0,0,0,.16c1.47.11,4.09.67,5,3.29C227.58,138.26,219.53,149.66,204.75,152.93Z"/><path class="cls-2" d="M157.55,68.79s-40.84-6.48-50.06,4.51c-4,4.8,12,40.47,23.06,45.77"/><path class="cls-3" d="M112,77.61c12.44-2.41,20.75,10.17,36.73,8,4.11-.57-8.47,28.22-17,27.4C125.59,112.7,108.13,78.37,112,77.61Z"/><ellipse class="cls-4" cx="200.94" cy="128.9" rx="2.5" ry="4.38"/><path class="cls-5" d="M204.75,152.93l-1.11.23a2.58,2.58,0,0,1-.08-.26,21.17,21.17,0,0,1,16.36-26.3.94.94,0,0,0,0,.16c1.47.11,4.09.67,5,3.29C227.58,138.26,219.53,149.66,204.75,152.93Z"/><path class="cls-4" d="M221,126.92c.14-.82,2.56-1.07,4.91-.68,5,.81,1.48,10-.72,9.17C224.11,135,220.82,128.09,221,126.92Z"/></svg>